<?xml version="1.0" encoding="utf-8"?>
<!-- Generator: Adobe Illustrator 27.5.0, SVG Export Plug-In . SVG Version: 6.00 Build 0)  -->
<svg version="1.1" id="Layer_1" xmlns="http://www.w3.org/2000/svg" xmlns:xlink="http://www.w3.org/1999/xlink" x="0px" y="0px"
	 viewBox="0 0 1200 900" style="enable-background:new 0 0 1200 900;" xml:space="preserve">
<rect x="0" y="0" style="fill:#FFFFFF;" width="1200" height="900"/>
<g>
	<path style="fill:#F6E6D0;" d="M1098.684,611.737c-9.129,43.403-22.81,93.303-41.765,150.662
		c-4.852,14.695-11.52,37.398-16.659,48.268c-0.937,1.982-1.823,3.57-2.639,4.648H123.696c-0.51-1.543-1.02-3.092-1.524-4.648
		c-16.748-51.819-27.554-109.242-31.22-142.432c-2.021-18.323-3.334-37.251-3.902-56.498
		c-3.022-101.534,14.466-212.018,55.396-290.607c49.396-94.859,99.863-164.56,176.884-208.965
		c75.102-43.295,177.094-57.2,250.991,3.423c69.505,57.028,111.939,118.065,160.149,181.557
		C811.022,403.225,1191.936,168.599,1098.684,611.737z"/>
	<ellipse style="fill:#7BA4AB;" cx="600" cy="815.314" rx="547.301" ry="31.877"/>
	<g>
		<g>
			<g>
				<g>
					<g>
						<g>
							<g>
								
									<rect x="416.328" y="194.215" transform="matrix(0.9633 -0.2686 0.2686 0.9633 -48.9779 126.9916)" style="fill:#008E80;" width="46.597" height="96.56"/>
								<path style="fill:#00B09F;" d="M440.3,192.185l23.894,85.688c1.127,4.044,5.982,6.225,10.843,4.87
									c4.86-1.356,7.887-5.733,6.758-9.777l-23.892-85.688L440.3,192.185z"/>
							</g>
							
								<rect x="448.707" y="203.357" transform="matrix(0.9633 -0.2686 0.2686 0.9633 -39.1384 129.7516)" style="fill:#FFAE36;" width="11.878" height="9.124"/>
						</g>
						<g>
							<g>
								<rect x="386.009" y="178.542" style="fill:#D13459;" width="46.597" height="111.006"/>
								<path style="fill:#FF4568;" d="M423.516,178.542c-0.03,0.283-0.046,0.57-0.046,0.861v101.54c0,4.753,4.09,8.605,9.136,8.605
									c5.046,0,9.137-3.852,9.137-8.605v-101.54c0-0.291-0.016-0.577-0.047-0.861H423.516z"/>
							</g>
							<rect x="427.124" y="183.864" style="fill:#D13459;" width="10.051" height="23.57"/>
						</g>
						<g>
							<g>
								<rect x="343.068" y="205.913" style="fill:#008E80;" width="46.597" height="84.395"/>
								<path style="fill:#14E2E2;" d="M380.529,205.913v77.749c0,3.671,4.09,6.645,9.136,6.645c5.046,0,9.137-2.975,9.137-6.645
									v-77.749H380.529z"/>
							</g>
							<rect x="384.182" y="218.539" style="fill:#FF4568;" width="11.878" height="7.974"/>
						</g>
					</g>
					<g>
						<g>
							<g>
								<rect x="319.465" y="217.085" style="fill:#00598B;" width="32.725" height="74.664"/>
								<path style="fill:#007DC9;" d="M345.774,217.085v68.784c0,3.247,2.873,5.879,6.417,5.879c3.544,0,6.416-2.632,6.416-5.879
									v-68.784H345.774z"/>
							</g>
							<rect x="348.34" y="228.255" style="fill:#FFAE36;" width="8.342" height="7.054"/>
						</g>
						<g>
							<g>
								<rect x="298.29" y="205.915" style="fill:#D13459;" width="32.726" height="85.834"/>
								<path style="fill:#FF4568;" d="M324.632,205.915c-0.022,0.219-0.033,0.441-0.033,0.666v78.514
									c0,3.675,2.873,6.654,6.417,6.654c3.544,0,6.416-2.978,6.416-6.654v-78.514c0-0.225-0.011-0.447-0.033-0.666H324.632z"/>
							</g>
							<rect x="327.166" y="210.03" style="fill:#D13459;" width="7.058" height="18.225"/>
						</g>
						<g>
							<g>
								<rect x="268.132" y="227.079" style="fill:#007DC9;" width="32.725" height="65.257"/>
								<path style="fill:#009AEC;" d="M294.441,227.079v60.118c0,2.838,2.873,5.138,6.417,5.138c3.544,0,6.417-2.3,6.417-5.138
									v-60.118H294.441z"/>
							</g>
							<rect x="297.007" y="236.842" style="fill:#FFFFFF;" width="8.342" height="6.166"/>
						</g>
					</g>
				</g>
				<g>
					<path style="fill:#C9C9B5;" d="M506.155,291.681c0,5.986-2.457,10.838-5.49,10.838h-251.17c-3.031,0-5.488-4.852-5.488-10.838
						c0-2.997,0.613-5.699,1.607-7.663c0.994-1.964,2.363-3.175,3.881-3.175h251.17
						C503.699,280.842,506.155,285.694,506.155,291.681z"/>
					<path style="fill:#FFFFFF;" d="M506.155,291.681c0,5.986-2.457,10.838-5.49,10.838H303.734c-3.032,0-5.489-4.852-5.489-10.838
						c0-2.997,0.613-5.699,1.608-7.663c0.994-1.964,2.364-3.175,3.881-3.175h196.932
						C503.699,280.842,506.155,285.694,506.155,291.681z"/>
				</g>
			</g>
			<g>
				<path style="fill:#4D6D73;" d="M1019.679,811.603c0,6.979-187.896,12.637-419.68,12.637
					c-231.783,0-419.679-5.658-419.679-12.637c0-6.979,187.896-12.637,419.679-12.637
					C831.783,798.966,1019.679,804.624,1019.679,811.603z"/>
				<g>
					<g>
						<g>
							<polygon style="fill:#808C8E;" points="808.608,507.534 814.417,813.598 818.839,813.598 822.714,507.534 823.013,483.882 
								823.195,469.376 807.884,469.376 808.16,483.882 							"/>
							<polygon style="fill:#B3B2B2;" points="823.013,483.882 822.714,507.534 808.608,507.534 808.16,483.882 							"/>
						</g>
						<g>
							<polygon style="fill:#808C8E;" points="955.246,507.534 961.054,813.598 965.475,813.598 969.351,507.534 969.651,483.882 
								969.829,469.376 954.52,469.376 954.797,483.882 							"/>
							<polygon style="fill:#B3B2B2;" points="969.651,483.882 969.351,507.534 955.246,507.534 954.797,483.882 							"/>
						</g>
						<g>
							<polygon style="fill:#808C8E;" points="234.822,507.534 240.631,813.598 245.053,813.598 248.929,507.534 249.227,483.882 
								249.409,469.376 234.099,469.376 234.374,483.882 							"/>
							<polygon style="fill:#B3B2B2;" points="249.227,483.882 248.929,507.534 234.822,507.534 234.374,483.882 							"/>
						</g>
						<g>
							<polygon style="fill:#808C8E;" points="381.46,507.534 387.27,813.598 391.69,813.598 395.565,507.534 395.865,483.882 
								396.045,469.376 380.735,469.376 381.011,483.882 							"/>
							<polygon style="fill:#B3B2B2;" points="395.865,483.882 395.565,507.534 381.46,507.534 381.011,483.882 							"/>
						</g>
						<g>
							<path style="fill:#808C8E;" d="M211.446,476.547c0,6.364,4.214,11.521,9.415,11.521h15.745h230.123h442.707
								c5.199,0,9.414-5.157,9.414-11.521l0,0c0-6.364-4.216-11.523-9.414-11.523H220.861
								C215.66,465.024,211.446,470.183,211.446,476.547L211.446,476.547z"/>
							<path style="fill:#B1B6B8;" d="M408.968,476.547c0,6.364,3.456,11.521,7.713,11.521h564.161
								c4.258,0,7.712-5.157,7.712-11.521l0,0c0-6.364-3.454-11.523-7.712-11.523H416.681
								C412.424,465.024,408.968,470.183,408.968,476.547L408.968,476.547z"/>
						</g>
					</g>
					<g>
						<g>
							<g>
								<g>
									<path style="fill:#04070F;" d="M693.247,333.071l18.916,121.308c0.909,5.829-2.664,10.551-7.988,10.551H531.199
										c-0.389,0-0.773-0.023-1.162-0.08c-4.893-0.613-9.424-5.067-10.423-10.471l-22.427-121.308
										c-1.077-5.823,2.459-10.546,7.891-10.546h176.683C687.199,322.525,692.338,327.248,693.247,333.071z"/>
								</g>
								<g>
									<g>
										<path style="fill:#41423C;" d="M724.704,454.382c0.898,5.826-2.829,10.548-8.327,10.548h-178.67
											c-5.496,0-10.821-4.722-11.893-10.548l-22.313-121.308c-1.072-5.825,2.611-10.547,8.225-10.547h182.498
											c5.616,0,10.894,4.722,11.791,10.547L724.704,454.382z"/>
									</g>
									<path style="fill:#D9D6D2;" d="M718.268,437.404c0.759,4.905-2.948,8.884-8.278,8.884H536.707
										c-5.331,0-10.383-3.978-11.283-8.884l-18.753-102.177c-0.9-4.906,2.769-8.884,8.196-8.884h176.401
										c5.427,0,10.442,3.978,11.2,8.884L718.268,437.404z"/>
								</g>
							</g>
							<polygon style="fill:#9DB07C;" points="694.932,331.581 712.715,445.823 532.62,445.823 511.75,331.581 							"/>
							<g>
								<g>
									<polygon style="fill:#FFFFFF;" points="581.74,407.702 581.884,408.53 613.301,408.53 613.161,407.702 									"/>
									<polygon style="fill:#FFFFFF;" points="573.599,407.702 562.569,407.702 562.715,408.53 573.744,408.53 									"/>
									<polygon style="fill:#FFFFFF;" points="574.47,412.667 563.448,412.667 563.593,413.494 574.615,413.494 									"/>
									<polygon style="fill:#FFFFFF;" points="582.605,412.667 582.75,413.494 614.144,413.494 614.003,412.667 									"/>
									<polygon style="fill:#FFFFFF;" points="575.341,417.63 564.327,417.63 564.474,418.458 575.487,418.458 									"/>
									<polygon style="fill:#FFFFFF;" points="583.471,417.63 583.615,418.458 614.986,418.458 614.845,417.63 									"/>
									<polygon style="fill:#FFFFFF;" points="576.213,422.595 565.207,422.595 565.353,423.422 576.358,423.422 									"/>
									<polygon style="fill:#FFFFFF;" points="584.336,422.595 584.481,423.422 615.828,423.422 615.687,422.595 									"/>
									<polygon style="fill:#FFFFFF;" points="577.083,427.559 566.086,427.559 566.233,428.386 577.229,428.386 									"/>
									<polygon style="fill:#FFFFFF;" points="585.201,427.559 585.345,428.386 597.49,428.386 597.346,427.559 									"/>
									<polygon style="fill:#FFFFFF;" points="577.955,432.523 566.966,432.523 567.113,433.35 578.101,433.35 									"/>
									<polygon style="fill:#FFFFFF;" points="586.067,432.523 586.211,433.35 598.346,433.35 598.203,432.523 									"/>
								</g>
								<g>
									<polygon style="fill:#FFFFFF;" points="582.139,409.995 582.284,410.822 613.69,410.822 613.55,409.995 									"/>
									<polygon style="fill:#FFFFFF;" points="574.001,409.995 562.974,409.995 563.12,410.822 574.146,410.822 									"/>
									<polygon style="fill:#FFFFFF;" points="574.873,414.959 563.854,414.959 564,415.787 575.018,415.787 									"/>
									<polygon style="fill:#FFFFFF;" points="583.005,414.959 583.149,415.787 614.533,415.787 614.392,414.959 									"/>
									<polygon style="fill:#FFFFFF;" points="575.745,419.923 564.733,419.923 564.88,420.751 575.889,420.751 									"/>
									<polygon style="fill:#FFFFFF;" points="583.87,419.923 584.015,420.751 615.375,420.751 615.234,419.923 									"/>
									<polygon style="fill:#FFFFFF;" points="576.615,424.887 565.614,424.887 565.759,425.714 576.76,425.714 									"/>
									<polygon style="fill:#FFFFFF;" points="584.736,424.887 584.879,425.714 616.217,425.714 616.076,424.887 									"/>
									<polygon style="fill:#FFFFFF;" points="577.486,429.851 566.492,429.851 566.639,430.679 577.632,430.679 									"/>
									<polygon style="fill:#FFFFFF;" points="585.601,429.851 585.746,430.679 597.884,430.679 597.743,429.851 									"/>
									<polygon style="fill:#FFFFFF;" points="578.358,434.816 567.372,434.816 567.519,435.643 578.504,435.643 									"/>
									<polygon style="fill:#FFFFFF;" points="586.466,434.816 586.611,435.643 598.741,435.643 598.598,434.816 									"/>
								</g>
							</g>
							<g>
								<g>
									<polygon style="fill:#FFFFFF;" points="629.478,407.702 618.448,407.702 618.588,408.53 629.617,408.53 									"/>
									<polygon style="fill:#FFFFFF;" points="630.309,412.667 619.286,412.667 619.425,413.494 630.447,413.494 									"/>
									<polygon style="fill:#FFFFFF;" points="631.138,417.63 620.124,417.63 620.264,418.458 631.277,418.458 									"/>
									<polygon style="fill:#FFFFFF;" points="631.968,422.595 620.962,422.595 621.102,423.422 632.106,423.422 									"/>
									<polygon style="fill:#FFFFFF;" points="632.799,427.559 621.8,427.559 621.94,428.386 632.937,428.386 									"/>
									<polygon style="fill:#FFFFFF;" points="633.629,432.523 622.639,432.523 622.779,433.35 633.767,433.35 									"/>
								</g>
								<g>
									<polygon style="fill:#FFFFFF;" points="629.862,409.995 618.835,409.995 618.974,410.822 629.999,410.822 									"/>
									<polygon style="fill:#FFFFFF;" points="630.692,414.959 619.673,414.959 619.813,415.787 630.83,415.787 									"/>
									<polygon style="fill:#FFFFFF;" points="631.521,419.923 620.511,419.923 620.651,420.751 631.66,420.751 									"/>
									<polygon style="fill:#FFFFFF;" points="632.352,424.887 621.349,424.887 621.489,425.714 632.49,425.714 									"/>
									<polygon style="fill:#FFFFFF;" points="633.182,429.851 622.188,429.851 622.327,430.679 633.32,430.679 									"/>
									<polygon style="fill:#FFFFFF;" points="634.011,434.816 623.026,434.816 623.165,435.643 634.15,435.643 									"/>
								</g>
							</g>
							<g>
								<g>
									<polygon style="fill:#FFFFFF;" points="646.267,407.622 635.237,407.622 635.374,408.449 646.403,408.449 									"/>
									<polygon style="fill:#FFFFFF;" points="647.085,412.586 636.062,412.586 636.2,413.413 647.221,413.413 									"/>
									<polygon style="fill:#FFFFFF;" points="647.901,417.549 636.888,417.549 637.026,418.377 648.039,418.377 									"/>
									<polygon style="fill:#FFFFFF;" points="648.719,422.514 637.713,422.514 637.851,423.342 648.857,423.342 									"/>
									<polygon style="fill:#FFFFFF;" points="649.537,427.478 638.539,427.478 638.676,428.306 649.674,428.306 									"/>
									<polygon style="fill:#FFFFFF;" points="650.355,432.442 639.365,432.442 639.502,433.27 650.491,433.27 									"/>
								</g>
								<g>
									<polygon style="fill:#FFFFFF;" points="646.644,409.914 635.618,409.914 635.756,410.741 646.78,410.741 									"/>
									<polygon style="fill:#FFFFFF;" points="647.462,414.879 636.443,414.879 636.58,415.706 647.598,415.706 									"/>
									<polygon style="fill:#FFFFFF;" points="648.28,419.842 637.269,419.842 637.406,420.67 648.415,420.67 									"/>
									<polygon style="fill:#FFFFFF;" points="649.098,424.806 638.094,424.806 638.231,425.634 649.233,425.634 									"/>
									<polygon style="fill:#FFFFFF;" points="649.914,429.771 638.92,429.771 639.058,430.598 650.051,430.598 									"/>
									<polygon style="fill:#FFFFFF;" points="650.732,434.735 639.746,434.735 639.884,435.562 650.869,435.562 									"/>
								</g>
							</g>
							<g>
								<g>
									<polygon style="fill:#FFFFFF;" points="663.056,407.541 652.024,407.541 652.161,408.368 663.19,408.368 									"/>
									<polygon style="fill:#FFFFFF;" points="663.861,412.505 652.839,412.505 652.974,413.333 663.995,413.333 									"/>
									<polygon style="fill:#FFFFFF;" points="664.666,417.469 653.652,417.469 653.787,418.297 664.8,418.297 									"/>
									<polygon style="fill:#FFFFFF;" points="665.471,422.433 654.465,422.433 654.6,423.261 665.605,423.261 									"/>
									<polygon style="fill:#FFFFFF;" points="666.276,427.397 655.278,427.397 655.414,428.225 666.41,428.225 									"/>
									<polygon style="fill:#FFFFFF;" points="667.081,432.362 656.091,432.362 656.227,433.189 667.216,433.189 									"/>
								</g>
								<g>
									<polygon style="fill:#FFFFFF;" points="663.427,409.833 652.401,409.833 652.536,410.661 663.562,410.661 									"/>
									<polygon style="fill:#FFFFFF;" points="664.233,414.798 653.214,414.798 653.349,415.625 664.367,415.625 									"/>
									<polygon style="fill:#FFFFFF;" points="665.037,419.761 654.027,419.761 654.163,420.589 665.172,420.589 									"/>
									<polygon style="fill:#FFFFFF;" points="665.843,424.726 654.84,424.726 654.976,425.553 665.978,425.553 									"/>
									<polygon style="fill:#FFFFFF;" points="666.648,429.69 655.653,429.69 655.789,430.518 666.781,430.518 									"/>
									<polygon style="fill:#FFFFFF;" points="667.453,434.654 656.466,434.654 656.602,435.481 667.587,435.481 									"/>
								</g>
							</g>
							<g>
								<g>
									<polygon style="fill:#FFFFFF;" points="697.497,407.46 668.813,407.46 668.947,408.288 697.627,408.288 									"/>
									<polygon style="fill:#FFFFFF;" points="698.277,412.425 669.615,412.425 669.748,413.252 698.406,413.252 									"/>
									<polygon style="fill:#FFFFFF;" points="699.056,417.388 670.416,417.388 670.549,418.216 699.186,418.216 									"/>
									<polygon style="fill:#FFFFFF;" points="699.836,422.353 671.216,422.353 671.349,423.18 699.965,423.18 									"/>
									<polygon style="fill:#FFFFFF;" points="700.615,427.317 672.017,427.317 672.15,428.145 700.745,428.145 									"/>
									<polygon style="fill:#FFFFFF;" points="701.394,432.281 672.818,432.281 672.952,433.109 701.525,433.109 									"/>
								</g>
								<g>
									<polygon style="fill:#FFFFFF;" points="697.857,409.753 669.184,409.753 669.317,410.58 697.986,410.58 									"/>
									<polygon style="fill:#FFFFFF;" points="698.636,414.717 669.984,414.717 670.117,415.545 698.766,415.545 									"/>
									<polygon style="fill:#FFFFFF;" points="699.416,419.681 670.786,419.681 670.919,420.509 699.545,420.509 									"/>
									<polygon style="fill:#FFFFFF;" points="700.196,424.645 671.587,424.645 671.72,425.473 700.326,425.473 									"/>
									<polygon style="fill:#FFFFFF;" points="700.975,429.609 672.387,429.609 672.521,430.437 701.105,430.437 									"/>
									<polygon style="fill:#FFFFFF;" points="701.754,434.574 673.188,434.574 673.321,435.401 701.884,435.401 									"/>
								</g>
							</g>
							<g>
								<polygon style="fill:#FFFFFF;" points="608.278,355.356 608.443,356.33 621.51,356.33 621.347,355.356 								"/>
								<polygon style="fill:#FFFFFF;" points="604.893,355.356 600.304,355.356 600.47,356.33 605.058,356.33 								"/>
								<polygon style="fill:#FFFFFF;" points="605.884,361.203 601.299,361.203 601.465,362.177 606.049,362.177 								"/>
								<polygon style="fill:#FFFFFF;" points="609.266,361.203 609.432,362.177 622.487,362.177 622.324,361.203 								"/>
								<polygon style="fill:#FFFFFF;" points="606.875,367.047 602.295,367.047 602.461,368.023 607.04,368.023 								"/>
								<polygon style="fill:#FFFFFF;" points="610.255,367.047 610.42,368.023 623.464,368.023 623.301,367.047 								"/>
							</g>
							<g>
								<path style="fill:#3E4232;" d="M574.619,398.2c-1.69,0.668-3.916,1.002-6.678,1.002c-0.465,0-0.916-0.192-1.352-0.576
									c-0.436-0.384-0.693-0.795-0.77-1.233l-2.155-12.212c-0.115-0.522-0.227-1.044-0.334-1.567
									c-0.128-0.592-0.196-1.091-0.206-1.498c-0.019-0.722,0.585-1.16,1.809-1.314c0.562-0.169,1.527-0.253,2.896-0.253
									c1.471,0,2.96,0.469,4.47,1.406c1.77,1.091,2.797,2.454,3.082,4.09c0.154,0.883,0.122,1.628-0.098,2.235
									c-0.171,0.491-0.527,1.018-1.065,1.578c0.817,0.361,1.58,0.906,2.289,1.636c0.802,0.814,1.274,1.624,1.414,2.431
									c0.178,1.022-0.215,1.99-1.181,2.904C576.095,397.436,575.388,397.893,574.619,398.2z M568.378,383.671
									c-1.003,0-1.604,0.008-1.804,0.023l0.442,2.442l0.413,2.419c0.723,0.085,1.26,0.112,1.611,0.081
									c2.345-0.184,3.383-1.048,3.112-2.592c-0.095-0.545-0.538-1.072-1.326-1.579
									C570.01,383.936,569.194,383.671,568.378,383.671z M571.172,391.817c-0.707,0-1.768-0.027-3.182-0.081l0.758,4.309
									c1.322-0.069,2.726-0.322,4.209-0.761c1.298-0.384,1.901-0.798,1.808-1.244c-0.128-0.591-0.658-1.118-1.592-1.579
									C572.439,392.093,571.773,391.879,571.172,391.817z"/>
								<path style="fill:#3E4232;" d="M588.702,399.352c-2.296,0-4.364-0.653-6.204-1.959c-1.966-1.398-3.143-3.207-3.53-5.427
									c-0.456-2.611-0.042-4.992,1.239-7.143c1.438-2.419,3.569-3.629,6.392-3.629c2.714,0,4.855,0.615,6.418,1.844
									c1.564,1.229,2.558,3.076,2.981,5.542c0.449,2.611,0.094,4.977-1.062,7.097
									C593.603,398.127,591.525,399.352,588.702,399.352z M587.138,384.316c-1.734,0-3.074,0.83-4.022,2.489
									c-0.888,1.552-1.169,3.272-0.84,5.161c0.222,1.275,0.902,2.312,2.042,3.111c1.095,0.768,2.376,1.152,3.844,1.152
									c1.707,0,2.988-0.83,3.843-2.489c0.787-1.513,1.015-3.234,0.683-5.161c-0.277-1.613-0.836-2.734-1.675-3.365
									C590.21,384.616,588.919,384.316,587.138,384.316z"/>
								<path style="fill:#3E4232;" d="M607.726,399.352c-2.297,0-4.363-0.653-6.2-1.959c-1.963-1.398-3.133-3.207-3.514-5.427
									c-0.448-2.611-0.028-4.992,1.258-7.143c1.446-2.419,3.58-3.629,6.403-3.629c2.714,0,4.854,0.615,6.414,1.844
									c1.56,1.229,2.549,3.076,2.965,5.542c0.441,2.611,0.079,4.977-1.083,7.097C612.63,398.127,610.549,399.352,607.726,399.352z
									 M606.204,384.316c-1.733,0-3.077,0.83-4.029,2.489c-0.893,1.552-1.179,3.272-0.855,5.161
									c0.218,1.275,0.896,2.312,2.034,3.111c1.094,0.768,2.373,1.152,3.84,1.152c1.707,0,2.991-0.83,3.85-2.489
									c0.792-1.513,1.024-3.234,0.698-5.161c-0.273-1.613-0.829-2.734-1.665-3.365
									C609.274,384.616,607.984,384.316,606.204,384.316z"/>
								<path style="fill:#3E4232;" d="M621.224,393.545l0.804,4.85c0.056,0.338,0.011,0.649-0.134,0.934
									c-0.206,0.392-0.568,0.588-1.089,0.588c-0.612,0-1.134-0.246-1.567-0.737c-0.336-0.384-0.541-0.795-0.615-1.233
									c-0.288-1.705-0.664-4.266-1.133-7.685c-0.467-3.418-0.844-5.98-1.131-7.685c-0.073-0.43,0.02-0.799,0.279-1.106
									c0.259-0.307,0.623-0.461,1.089-0.461c0.467,0,0.88,0.154,1.239,0.461c0.359,0.307,0.574,0.676,0.647,1.106
									c0.115,0.692,0.237,1.625,0.364,2.8c0.145,1.367,0.251,2.3,0.319,2.8c0.46-0.507,2.117-2.642,4.979-6.406
									c0.293-0.384,0.674-0.577,1.14-0.577c0.443,0,0.856,0.154,1.237,0.461c0.382,0.307,0.609,0.68,0.681,1.117
									c0.08,0.477-0.639,1.713-2.155,3.71c-1.123,1.467-2.321,2.915-3.596,4.344c0.979,0.791,1.962,1.582,2.949,2.373
									c1.145,0.906,2.163,1.651,3.051,2.235c0.444,0.284,0.906,0.5,1.389,0.646c0.874,0.261,1.373,0.764,1.497,1.509
									c0.055,0.33,0.004,0.65-0.154,0.956c-0.219,0.415-0.584,0.623-1.095,0.623c-1.11,0-2.668-0.718-4.678-2.155
									C624.943,396.583,623.503,395.427,621.224,393.545z"/>
								<path style="fill:#3E4232;" d="M640.676,385.031c-0.374,0-1.413-0.108-3.12-0.323c0.125,1.413,0.381,3.291,0.769,5.634
									l0.844,5.173c1.029-0.023,2.078-0.035,3.149-0.035c0.466,0,0.877,0.154,1.236,0.461c0.356,0.307,0.57,0.676,0.641,1.106
									c0.071,0.431-0.025,0.797-0.289,1.101c-0.263,0.304-0.631,0.455-1.108,0.455c-0.444,0-1.107,0.01-1.992,0.029
									c-0.885,0.019-1.55,0.029-1.993,0.029c-0.524,0-1.297,0.068-2.321,0.202c-1.024,0.134-1.797,0.201-2.321,0.201
									c-0.476,0-0.895-0.152-1.259-0.455c-0.363-0.303-0.581-0.67-0.653-1.101c-0.072-0.43,0.031-0.799,0.308-1.106
									c0.277-0.307,0.663-0.461,1.162-0.461c0.564,0,1.297-0.058,2.2-0.173c-0.166-0.906-0.463-2.642-0.888-5.208
									c-0.346-2.089-0.6-4.082-0.759-5.98l-2.518,0.069c-0.467,0-0.883-0.15-1.247-0.449c-0.366-0.299-0.585-0.672-0.659-1.117
									c-0.076-0.453,0.013-0.822,0.268-1.107c0.234-0.261,0.552-0.41,0.954-0.449c0.653-0.061,1.8-0.092,3.443-0.092
									c1.479,0,3.408,0.161,5.79,0.484c0.948,0.13,1.5,0.661,1.652,1.59c0.081,0.491-0.035,0.88-0.346,1.163
									C641.363,384.912,641.049,385.031,640.676,385.031z"/>
								<path style="fill:#3E4232;" d="M663.003,395.815c0.063,0.384,0.095,0.991,0.096,1.82c0.005,0.991-0.481,1.487-1.457,1.487
									c-0.544,0-1.206-0.304-1.987-0.91c-3.42-2.665-7.403-6.402-11.95-11.211c0.281,1.997,0.457,3.222,0.532,3.676
									c0.1,0.606,0.264,1.52,0.49,2.742c0.227,1.221,0.391,2.136,0.49,2.742c0.372,2.266-0.001,3.399-1.118,3.399
									c-0.566,0-1.048-0.173-1.445-0.518c-0.354-0.307-0.566-0.68-0.639-1.117c-0.05-0.307-0.101-0.772-0.154-1.394
									c-0.052-0.623-0.103-1.087-0.154-1.395c-0.074-0.453-0.17-1.132-0.289-2.039c-0.118-0.906-0.215-1.586-0.289-2.04
									c-0.079-0.484-0.21-1.213-0.395-2.189c-0.184-0.975-0.315-1.705-0.395-2.19c-0.075-0.46-0.236-1.148-0.479-2.062
									c-0.243-0.914-0.404-1.602-0.48-2.062c-0.076-0.461,0.057-0.872,0.399-1.233c0.34-0.361,0.768-0.542,1.281-0.542
									c0.575,0,1.294,0.492,2.155,1.475c4.344,4.977,8.487,9.036,12.429,12.178c-0.031-0.246-0.123-0.83-0.272-1.751
									c-0.615-3.787-1.068-6.341-1.361-7.662c-0.051-0.223-0.17-0.637-0.354-1.244c-0.164-0.537-0.273-0.96-0.323-1.267
									c-0.172-1.06,0.31-1.59,1.446-1.59c1.268,0,2.214,1.932,2.84,5.795c0.013,0.085,0.103,0.691,0.271,1.82
									C662.479,392.435,662.848,394.862,663.003,395.815z"/>
								<path style="fill:#3E4232;" d="M678.893,391.875c-0.163,2.289-0.934,4.121-2.313,5.496c-1.4,1.383-3.19,2.074-5.369,2.074
									c-2.064,0-3.697-0.54-4.904-1.619c-1.207-1.079-1.984-2.698-2.333-4.856c-0.318-1.966-0.155-3.982,0.491-6.049
									c0.646-2.066,1.635-3.741,2.968-5.023c0.936-0.899,2.024-1.348,3.26-1.348c0.755,0,1.824,0.269,3.209,0.807
									c1.642,0.637,2.52,1.317,2.635,2.039c0.067,0.415-0.034,0.785-0.3,1.112c-0.267,0.327-0.633,0.49-1.099,0.49
									c-0.233,0-0.783-0.217-1.648-0.651c-0.867-0.433-1.631-0.651-2.291-0.651c-0.7,0-1.526,0.745-2.475,2.235
									c-1.385,2.166-1.872,4.513-1.465,7.04c0.207,1.283,0.538,2.154,0.992,2.615c0.481,0.484,1.3,0.726,2.456,0.726
									c1.188,0,2.177-0.334,2.971-1.003c0.842-0.706,1.382-1.735,1.624-3.087c-1.779,0.139-3.289,0.503-4.529,1.094
									c-0.224,0.108-0.456,0.161-0.696,0.161c-0.482,0-0.91-0.176-1.285-0.53c-0.338-0.315-0.539-0.672-0.602-1.071
									c-0.19-1.176,1.083-1.997,3.82-2.466c1.543-0.261,3.371-0.392,5.484-0.392c0.466,0,0.881,0.15,1.243,0.449
									c0.363,0.299,0.578,0.668,0.649,1.106C679.474,391.134,679.31,391.567,678.893,391.875z"/>
							</g>
							<polygon style="fill:#D3E0B7;" points="694.932,331.581 696.657,342.66 513.774,342.66 511.75,331.581 							"/>
							<g>
								<polygon style="fill:#97F0FF;" points="590.269,347.246 595.151,375.712 552.894,375.712 547.834,347.246 								"/>
								<g>
									<polygon style="fill:#8F8585;" points="558.428,375.712 552.894,375.712 549.972,359.274 555.52,359.274 									"/>
									<polygon style="fill:#8F8585;" points="563.961,375.712 557.422,375.712 555.221,363.283 561.773,363.283 									"/>
									<polygon style="fill:#8F8585;" points="567.986,375.712 562.955,375.712 558.856,352.458 563.904,352.458 									"/>
									<polygon style="fill:#8F8585;" points="574.526,375.712 565.974,375.712 563.084,359.274 571.657,359.274 									"/>
									<polygon style="fill:#8F8585;" points="579.556,375.712 572.514,375.712 570.831,366.089 577.884,366.089 									"/>
									<polygon style="fill:#8F8585;" points="586.095,375.712 579.053,375.712 575.637,356.066 582.7,356.066 									"/>
									<polygon style="fill:#8F8585;" points="593.138,375.712 582.574,375.712 580.768,365.288 591.348,365.288 									"/>
									<polygon style="fill:#8F8585;" points="595.151,375.712 589.617,375.712 587.406,362.882 592.95,362.882 									"/>
								</g>
							</g>
							<g>
								<g>
									<polygon style="fill:#97F0FF;" points="664.143,347.246 668.468,374.183 628.471,374.183 623.986,347.246 									"/>
									<g>
										<path style="fill:#5EAE4D;" d="M665.37,354.891l3.098,19.292h-39.996l-1.015-6.097c3.122-2.671,6.064-4.743,8.083-4.545
											c2.404,0.235,5.87,4.909,7.729,4.609c1.154-0.189,0.551-2.299,1.333-2.788c1.584-0.983,3.198,0.273,4.713-0.258
											c1.377-0.482,3.589-3.775,5.071-4.875c2.048-1.514,3.898-2.443,6.241-3.593
											C662.667,355.638,663.852,354.636,665.37,354.891z"/>
									</g>
								</g>
								<path style="fill:#5EAE4D;" d="M634.83,361.057c1.533,0.515,3.237,0.288,4.208-0.813c-2.015,0.151-5.103-3.652-5.178-4.079
									c0.769,0.254,1.515,0.163,2.158-0.266c-0.806-0.456-1.682-1.058-2.456-1.851c-0.176-0.178-0.349-0.368-0.511-0.566
									c-0.098,0.197-0.207,0.388-0.325,0.566c-0.512,0.793-1.188,1.396-1.843,1.851c0.784,0.429,1.56,0.52,2.245,0.266l0.001,0
									c0.066,0.428-1.764,4.231-3.83,4.08c1.337,1.102,3.115,1.328,4.479,0.813c-0.75,2.078-2.334,2.733-4.195,2.591
									c1.466,1.3,3.601,1.776,5.335,1.376c0.006-0.052,0.009-0.106,0.015-0.159c0.023,0.053,0.043,0.107,0.068,0.159
									c1.867,0.4,3.843-0.076,4.88-1.376C638.065,363.79,636.265,363.134,634.83,361.057z"/>
								<path style="fill:#5EAE4D;" d="M648.078,365.104c1.532,0.514,3.234,0.288,4.207-0.814c-2.014,0.152-5.093-3.651-5.168-4.079
									c0.768,0.255,1.515,0.163,2.156-0.265c-0.803-0.456-1.677-1.059-2.45-1.852c-0.177-0.178-0.349-0.368-0.511-0.565
									c-0.098,0.197-0.208,0.387-0.325,0.565c-0.515,0.793-1.19,1.396-1.845,1.852c0.782,0.429,1.558,0.52,2.242,0.265l0.001,0
									c0.066,0.428-1.77,4.231-3.834,4.079c1.333,1.102,3.11,1.328,4.473,0.814c-0.751,2.077-2.336,2.733-4.196,2.591
									c1.464,1.301,3.595,1.776,5.329,1.376c0.007-0.052,0.011-0.106,0.016-0.159c0.023,0.053,0.044,0.107,0.069,0.159
									c1.864,0.4,3.84-0.075,4.878-1.376C651.307,367.837,649.509,367.181,648.078,365.104z"/>
								<path style="fill:#5EAE4D;" d="M655.516,357.136c1.533,0.514,3.238,0.288,4.213-0.814c-2.016,0.152-5.094-3.651-5.168-4.079
									c0.769,0.254,1.516,0.163,2.161-0.265c-0.804-0.456-1.679-1.058-2.451-1.852c-0.177-0.178-0.349-0.368-0.511-0.565
									c-0.099,0.197-0.208,0.387-0.327,0.565c-0.515,0.793-1.194,1.396-1.85,1.852c0.783,0.429,1.559,0.52,2.245,0.265l0.001,0
									c0.064,0.428-1.779,4.231-3.845,4.079c1.333,1.102,3.112,1.328,4.478,0.814c-0.757,2.077-2.343,2.733-4.205,2.591
									c1.463,1.301,3.596,1.776,5.333,1.376c0.007-0.052,0.01-0.106,0.016-0.159c0.023,0.053,0.045,0.107,0.068,0.159
									c1.867,0.4,3.846-0.075,4.888-1.376C658.745,359.869,656.945,359.213,655.516,357.136z"/>
							</g>
							<g>
								<g>
									<polygon style="fill:#FFFFFF;" points="672.813,340.131 665.148,340.131 664.183,334.112 671.854,334.112 									"/>
								</g>
								<g>
									<polygon style="fill:#00B71B;" points="683.031,340.131 675.366,340.131 674.412,334.112 682.082,334.112 									"/>
								</g>
								<polygon style="fill:#9DB07C;" points="692.737,340.131 685.074,340.131 684.127,334.112 691.797,334.112 								"/>
							</g>
							<g>
								<polygon style="fill:#FFFFFF;" points="522.948,339.605 516.331,339.605 515.565,335.402 522.187,335.402 								"/>
							</g>
							<g>
								<polygon style="fill:#D3E0B7;" points="557.915,442.003 533.761,442.003 516.477,347.246 540.974,347.246 								"/>
								<g>
									<polygon style="fill:#9DB07C;" points="538.686,351.831 520.422,351.831 520.144,350.302 538.411,350.302 									"/>
									<polygon style="fill:#9DB07C;" points="534.572,354.887 520.979,354.887 520.7,353.359 534.298,353.359 									"/>
									<polygon style="fill:#9DB07C;" points="535.948,362.529 522.369,362.529 522.09,361.001 535.672,361.001 									"/>
									<polygon style="fill:#9DB07C;" points="537.322,370.171 523.759,370.171 523.481,368.643 537.047,368.643 									"/>
									<polygon style="fill:#9DB07C;" points="538.698,377.813 525.149,377.813 524.871,376.284 538.422,376.284 									"/>
									<polygon style="fill:#9DB07C;" points="536.841,367.496 523.273,367.496 522.995,365.968 536.566,365.968 									"/>
									<polygon style="fill:#9DB07C;" points="540.072,385.454 526.54,385.454 526.262,383.926 539.797,383.926 									"/>
								</g>
								<polygon style="fill:#9DB07C;" points="552.481,425.573 533.262,425.573 526.794,390.039 546.114,390.039 								"/>
								<g>
									<polygon style="fill:#FFFFFF;" points="541.49,430.446 541.789,432.1 553.391,432.1 553.094,430.446 									"/>
									<polygon style="fill:#FFFFFF;" points="538.482,430.446 534.409,430.446 534.711,432.1 538.782,432.1 									"/>
								</g>
							</g>
						</g>
						<path style="fill:#3E4232;" d="M757.721,451.556c0,1.688-1.369,3.057-3.056,3.057H540.696c-1.689,0-3.057-1.369-3.057-3.057
							l0,0c0-1.688,1.368-3.057,3.057-3.057h213.968C756.352,448.5,757.721,449.868,757.721,451.556L757.721,451.556z"/>
						<g>
							<path style="fill:#41423C;" d="M766.893,458.816c0,3.695-3.249,6.688-7.262,6.688H533.056c-1.072,0-2.086-0.211-3.004-0.602
								c-2.51-1.045-4.258-3.378-4.258-6.086c0-1.848,0.814-3.521,2.126-4.73c1.313-1.209,3.13-1.958,5.136-1.958h226.574
								C763.643,452.127,766.893,455.121,766.893,458.816z"/>
							<path style="fill:#04070F;" d="M601.063,458.816c0,2.771-1.828,5.147-4.431,6.161c-0.87,0.342-1.823,0.527-2.825,0.527
								h-60.752c-1.072,0-2.086-0.211-3.004-0.602c-4.78-0.565-8.488-4.666-8.488-9.645v-3.13h72.243
								C597.814,452.127,601.063,455.121,601.063,458.816z"/>
						</g>
					</g>
					<g>
						<g>
							<path style="fill:#FDA271;" d="M809.26,361.543c12.104-3.299,32.422-25.244,44.341-28.463
								c-0.907-0.885-2.081-2.57-3.418-4.827c-4.798-8.175-11.665-23.952-16.002-37.179c-1.232-3.771-2.256-7.327-2.976-10.439
								c-0.157-0.659-0.288-1.296-0.4-1.913c-1.066-5.316-0.996-9.012,0.805-9.671l-8.825,2.729l-18.889,5.862l-24.81,7.703
								c1.93,1.767,3.838,4.056,5.69,6.745c3.51,5.079,6.853,11.58,9.886,18.679C802.071,328.1,807.631,349,809.26,361.543z"/>
							<path style="fill:#DE7F50;" d="M818.449,334.292c7.263-2.349,15.354-3.455,22.954-4.839c2.627-0.472,5.671-0.795,8.781-1.199
								c-4.798-8.175-11.665-23.952-16.002-37.179c-1.232-3.771-2.256-7.327-2.976-10.439c-0.157-0.659-0.288-1.296-0.4-1.913
								L798.18,294.58C814.886,297.464,815.62,322.142,818.449,334.292z"/>
							<g>
								<g>
									<path style="fill:#FDA271;" d="M745.365,274.515c0.64,2.527,3.258,2.884,6.695,2.925c2.652,0.04,5.527-0.284,8.219-0.661
										c0.458-0.069,0.901-0.131,1.345-0.195l-2.433-4.05l-0.048-0.071l-10.243-17.048c-1.622,5.022-3.809,12.716-3.682,17.952
										C745.223,273.8,745.277,274.177,745.365,274.515z"/>
									<path style="fill:#DE7F50;" d="M745.365,274.515c0.64,2.527,3.258,2.884,6.695,2.925c2.652,0.04,5.527-0.284,8.219-0.661
										c-0.273-1.645-0.797-3.336-1.088-4.245l-0.022-0.076c-0.015,0.002-0.015,0.002-0.026,0.005
										c-2.727,0.447-5.264,1.707-8.159,2.02C749.606,274.621,747.058,274.312,745.365,274.515z"/>
								</g>
								<path style="fill:#FDA271;" d="M765.416,306.069c0.151,0.219,0.301,0.436,0.447,0.639c5.016,6.818,10.776,3.088,17.66,0.52
									c8.026-2.955,13.364-5.844,20.024-11.173c5.167-4.144,12.319-9.582,16.058-15.361c0.591-0.888,1.075-1.795,1.476-2.699
									c2.727-6.24,7.171-12.478,6.981-19.512c-0.256-8.657-3.704-23.679-9.088-30.365l-65.17-19.094
									c-4.026,0.411-5.209,15.466-5.932,19.445c-0.586,3.376-1.624,6.954-1.302,10.354c0.31,3.39,3.285,5.004,4.479,7.458
									c0.212,0.422,0.359,0.868,0.435,1.357c0.228,1.361-0.9,3.759-1.759,5.873c-0.421,1.038-0.809,2.01-0.913,2.748
									c-0.629,3.918,0.259,5.724,1.576,9.459c2.456,6.854,4.37,13.79,6.847,20.735
									C759.567,293.007,761.594,300.33,765.416,306.069z"/>
								<path style="fill:#1C0707;" d="M746.131,236.754c5.844-0.09,11.406,0.9,17.198,1.427l-1.209,5.276
									c-4.671,0.363-10.142-0.586-14.659,1.228C746.68,242.232,746.323,239.379,746.131,236.754z"/>
								<g>
									<path style="fill:#FFFFFF;" d="M749.727,253.506c1.233,0.177,2.685-0.163,4.08-0.756c1.99-0.841,3.851-2.203,4.82-3.367
										c-1.324-2.475-3.652-2.923-6.073-3.043c-0.5-0.033-1.009-0.045-1.508-0.066c0.215,0.427,0.362,0.873,0.439,1.356
										C751.715,248.992,750.587,251.396,749.727,253.506z"/>
									<path style="fill:#201715;" d="M749.727,253.506c1.233,0.177,2.685-0.163,4.08-0.756c0.198-1.337,0.101-2.822-0.345-4.3
										c-0.231-0.757-0.531-1.467-0.907-2.11c-0.5-0.033-1.009-0.045-1.508-0.066c0.215,0.427,0.362,0.873,0.439,1.356
										C751.715,248.992,750.587,251.396,749.727,253.506z"/>
								</g>
								<path style="fill:#DE7F50;" d="M765.864,306.708c5.016,6.818,10.776,3.088,17.66,0.52
									c8.026-2.955,13.364-5.844,20.024-11.173c5.167-4.144,12.319-9.582,16.058-15.361l-22.748-13.264
									C800.392,287.583,785.76,306.427,765.864,306.708z"/>
								<g>
									<path style="fill:#4B1F1F;" d="M732.515,217.45c3.118,6.086,12.284,9.71,20.462,5.861
										c28.838-18.076,17.757,33.167,26.482,45.768c1.762,0.208,11.443-0.854,13.207-1.191
										c-2.766-43.126,8.802,5.108,14.041,13.05c4.386,6.657,6.434,8.605,14.318,11.102c6.816,2.161,6.38-6.419,11.415-8.041
										c0,0,11.207-16.108,22.81-41.13c3.211-6.922,3.738-12.315,2.62-17.324c-1-4.497-3.348-8.682-6.295-13.375
										c3.513-2.621,4.681-4.641,8.127-7.13c-5.154-2.046-6.288-0.006-11.267-0.549c1.497-3.118,3.331-6.748,3.263-9.994
										c-3.436,1.908-8.987,0.067-12.294,2.178c0.295-4.27-36.338-42.787-102.123,6.114
										C731.132,207.74,730.342,213.197,732.515,217.45z"/>
									<path style="fill:#1C0707;" d="M732.515,217.45c3.118,6.086,12.284,9.71,20.462,5.861
										c28.838-18.076,17.757,33.167,26.482,45.768c1.762,0.208,11.443-0.854,13.207-1.191
										c-2.766-43.126,6.24,14.196,11.477,22.138c4.387,6.656,14.487,5.611,23.027,3.04c6.846-2.06,10.669-3.415,14.377-7.623
										c0,0,2.1-17.554,13.703-42.576c3.211-6.922,3.738-12.315,2.62-17.324c0.028,0.891-0.009,1.786-0.148,2.67
										c-0.863,5.535-5.104,7.704-9.856,9.859c4.988-2.169,2.288-9.83,1.313-13.785c-2.219,4.166-4.336,8.203-8.411,10.911
										c-3.426,2.27-7.778,2.775-10.987,5.01c-3.03-3.982-6.71-7.794-11.171-10.581c-4.117-2.57-8.896-3.003-13.14-4.835
										c-1.612,2.733-4.45,6.624-7.66,7.328c-2.033-5.094,0.893-10.486,2.736-15.198c-4.86,2.946-8.508,6.042-12.733,9.803
										c-4.639-4.248-4.801-11.551-11.59-14.786c-6.705-3.19-11.284-0.752-17.275,1.705
										C752.026,216.499,741.85,218.302,732.515,217.45z"/>
								</g>
								<g>
									<path style="fill:#FDA271;" d="M785.123,247.041c9.794-13.316,23.223,2.016,15.927,14.817
										c-7.349,12.888-14.468,7.711-15.631-4.702C785.419,257.157,783.624,249.08,785.123,247.041z"/>
								</g>
								<path style="fill:#DE7F50;" d="M800.414,251.23c-1.284-3.03-4.02-4.206-7.188-2.686c5.632,2.928,5.601,12.625-1.592,12.94
									l-0.166-0.455c1.475-0.894,3.052-4.475,2.541-6.871c-0.686-3.216-4.437-2.869-4.578-5.045
									C789.009,242.587,800.041,245.097,800.414,251.23z"/>
							</g>
						</g>
						<g>
							<path style="fill:#FDA271;" d="M801.116,747.642c0,5.321-1.718,17.971-1.54,25.547c0.104,4.374-1.847,21.943-8.581,23.089
								c-3.908,0.665-16.77,4.718-19.365-0.97c-1.001-2.193,3.99-8.256,4.946-12.737c2.574-12.064-4.095-28.59-5.846-32.407
								L801.116,747.642z"/>
							<g>
								<path style="fill:#0D0A07;" d="M811.807,811.244c-15.164,1.643-51.5,2.241-63.91-1.324v-4.842
									c0.146-0.153,0.299-0.306,0.459-0.465c4.07-4.044,10.788-9.072,16.288-13.489c4.876-3.924,9.472-7.203,11.932-8.553
									c-4.437,19.946,4.304,7.535,13.927,2.86c6.651-3.219,10.456-3.046,14.559,2.594c1.317,1.809,5.521,13.947,6.558,19.381
									C812.571,812.567,811.807,811.244,811.807,811.244z"/>
								<path style="fill:#783D2E;" d="M811.62,807.406c-16.602,1.796-55.55,2.88-63.724-1.922c0-0.006-0.007-0.006-0.007-0.006
									c0-0.007,0.007-0.007,0.007-0.013c0.126-0.266,0.28-0.552,0.459-0.851c4.07-4.044,10.788-9.072,16.288-13.489
									c4.876-3.924,9.472-7.203,11.932-8.553c-4.437,19.946,4.304,7.535,13.927,2.86c6.651-3.219,10.456-3.046,14.559,2.594
									C806.379,789.834,810.583,801.972,811.62,807.406z"/>
							</g>
							<path style="fill:#063B5C;" d="M796.837,565.073l-54.145,3.981c-1.037,8.441,0.263,22.596,0.781,26.058
								c7.811,52.044,7.81,73.61,17.658,124.68c3.305,17.091,6.178,33.867,8.683,51.088l33.099-3.368
								c4.957-41.62,14.987-88.636,3.745-129.168c-6.011-21.666-11.32-42.91-10.072-67.399
								C796.678,569.15,796.76,567.177,796.837,565.073z"/>
						</g>
						<g>
							<path style="fill:#FF0303;" d="M907.136,324.282l-90.595-17.32c-11.785,13.548-42.15,14.371-54.328,29.315
								c-11.438,14.037-2.961,152.82-2.961,197.175c0,19.411-2.118,37.612-1.13,57.087c20.8,5.02,52.012,1.601,73.043-2.536
								c11.495-2.261,23.562-2.345,29.268-10.658c7.96-11.597,9.074-35.323,12.43-49.253
								c15.718-65.246,27.58-133.184,34.343-198.411C907.389,327.908,906.958,326.065,907.136,324.282z"/>
							<path style="fill:#E60000;" d="M778.004,496.591c-4.103-18.313-1.275-76.824-2.32-95.479
								c-1.003-17.92-4.995,4.225-3.576-13.654c0.567-7.153,1.293-14.356,2.579-21.44c0.635-3.499,3.628-9.638,2.33-12.868
								l-13.768,17.763c-3.186,15.623-10.431,30.289-12.877,46.186c-2.819,18.319-1.977,37.059-2.678,55.535
								c-0.565,14.923-2.388,29.868-1.765,44.842c0.266,6.401,0.71,13.147-1.709,18.972c4.49,2.742,18.549-2.897,23.916-3.452
								c7.281-0.753,15.662-3.878,22.936-3.075C783.871,521.771,780.296,506.824,778.004,496.591z"/>
						</g>
						<g>
							<g>
								<path style="fill:#FDA271;" d="M688.386,746.645c0,5.321-1.718,17.971-1.54,25.547c0.104,4.373-1.847,21.943-8.582,23.089
									c-3.907,0.666-16.769,4.718-19.364-0.97c-1.001-2.193,3.99-8.256,4.946-12.737c2.574-12.064-4.095-28.59-5.847-32.407
									L688.386,746.645z"/>
								<g>
									<path style="fill:#0D0A07;" d="M699.077,810.246c-15.165,1.643-51.499,2.241-63.91-1.323v-4.842
										c0.146-0.153,0.299-0.306,0.459-0.466c4.07-4.044,10.788-9.072,16.288-13.488c4.876-3.924,9.472-7.203,11.932-8.553
										c-4.437,19.946,4.304,7.536,13.927,2.86c6.651-3.219,10.456-3.046,14.559,2.594c1.317,1.809,5.521,13.947,6.558,19.382
										C699.841,811.57,699.077,810.246,699.077,810.246z"/>
									<path style="fill:#783D2E;" d="M698.891,806.409c-16.602,1.796-55.549,2.88-63.724-1.923c0-0.006-0.007-0.006-0.007-0.006
										c0-0.007,0.007-0.007,0.007-0.014c0.126-0.266,0.279-0.552,0.459-0.851c4.07-4.044,10.788-9.072,16.288-13.488
										c4.876-3.924,9.472-7.203,11.932-8.553c-4.437,19.946,4.304,7.536,13.927,2.86c6.651-3.219,10.456-3.046,14.559,2.594
										C693.649,788.836,697.853,800.974,698.891,806.409z"/>
								</g>
								<path style="fill:#124B79;" d="M684.107,564.075l-54.144,3.981c-1.037,8.441,0.263,22.596,0.781,26.058
									c7.811,52.044,7.81,73.61,17.658,124.68c3.305,17.092,6.178,33.867,8.682,51.088l33.099-3.368
									c4.957-41.62,14.987-88.636,3.745-129.168c-6.011-21.666-11.32-42.91-10.072-67.399
									C683.948,568.153,684.03,566.18,684.107,564.075z"/>
							</g>
							<path style="fill:#124B79;" d="M772.336,509.47c-28.573,8.698-58.214,13.743-86.294,24.278
								c-11.344,4.256-55.535,20.961-56.079,34.308c-0.131,3.243,0.888,21.135,4.243,23.49c9.094,6.382,32.877,0.897,45.704,0.527
								c25.817-0.746,51.726-2.749,77.288-2.665c24.398,0.081,49.08-9.114,72.667-6.661L772.336,509.47z"/>
						</g>
						<g>
							<path style="fill:#FF0303;" d="M783.233,326.975c-12.615-3.714-23.637,8.371-28.149,17.922
								c-6.135,12.987-31.473,113.533-34.022,126.698c-2.333,12.048-2.012,21.221,14.021,21.554
								c17.936,0.372,22.232-12.399,26.6-25.706c8.32-25.357,31.431-107.764,29.102-125.841L783.233,326.975z"/>
							<g>
								<path style="fill:#FDA271;" d="M694.989,457.151c-2.764-2.083-1.59-6.037-4.073-6.765c-1.307-0.383-4.56-4.263-5.866-4.601
									c-4.806-1.242-7.544-0.7-12.468-1.093c-5.425-0.433-7.489-0.78-18.417,2.993l-11.975,6.937
									c13.396,1.658,41.424,15.315,56.853,10.175C697.397,461.899,697.686,459.185,694.989,457.151z"/>
								<path style="fill:#FDA271;" d="M745.161,495.501c-4.793,3.061-21.243-4.5-36.278-13.799
									c-11.019-6.814-21.279-14.558-25.644-19.737l11.613-5.809c8.668,3.269,22.345-0.061,32.892,2.565
									c7.071,1.757,16.021,4.548,24.365,6.134c3.599,0.679,7.082,1.138,10.254,1.194
									C762.798,468.522,752.88,490.573,745.161,495.501z"/>
								<path style="fill:#DE7F50;" d="M745.161,495.501c-4.793,3.061-21.243-4.5-36.278-13.799
									c1.402,0.453,2.578,0.826,3.391,1.102c7.689,2.589,19.309,7.358,27.567,4.304c8.307-3.079,10.315-14.576,12.268-22.252
									c3.599,0.679,7.082,1.138,10.254,1.194C762.798,468.522,752.88,490.573,745.161,495.501z"/>
							</g>
						</g>
						<g>
							<g>
								<path style="fill:#081727;" d="M830.818,631.124c11.136,1.734,42.72,6.274,46.462,8.943
									c4.532,3.237,14.921,24.178,23.672,14.588C918.168,635.788,863.871,631.9,830.818,631.124z"/>
								<g>
									<g>
										<path style="fill:#081727;" d="M789.323,777.357l0.457-9.167l2.372-48.149l5.512-111.58h10.614l7.11,111.58l3.064,48.149
											l0.44,6.876c0,4.219-9.463,14.519-13.647,14.519C801.061,789.585,789.323,781.576,789.323,777.357z"/>
										<polygon style="fill:#081727;" points="790.88,676.484 792.977,622.867 813.525,622.867 816.234,676.484 										"/>
									</g>
									<path style="fill:#081727;" d="M718.344,802.654c0,6.779-5.759,12.272-12.864,12.272c-7.104,0-12.862-5.493-12.862-12.272
										c0-6.775,5.758-12.269,12.862-12.269C712.585,790.385,718.344,795.88,718.344,802.654z"/>
									<path style="fill:#081727;" d="M840.058,802.654c0,6.779-5.76,12.272-12.864,12.272c-7.106,0-12.864-5.493-12.864-12.272
										c0-6.775,5.759-12.269,12.864-12.269C834.298,790.385,840.058,795.88,840.058,802.654z"/>
									<path style="fill:#081727;" d="M928.243,802.654c0,6.779-5.757,12.272-12.863,12.272c-7.105,0-12.864-5.493-12.864-12.272
										c0-6.775,5.76-12.269,12.864-12.269C922.486,790.385,928.243,795.88,928.243,802.654z"/>
									<polygon style="fill:#081727;" points="934.393,801.588 687.885,801.588 690.495,788.585 811.792,777.584 934.393,790.587 
																			"/>
									<polygon style="fill:#152A43;" points="804.853,777.584 804.089,777.817 804.089,801.588 840.793,801.588 840.793,790.587 
																			"/>
								</g>
								<path style="fill:#081727;" d="M801.221,632.518c-11.136,1.732-42.72,6.269-46.461,8.941
									c-4.534,3.237-14.922,24.176-23.672,14.588C713.87,637.178,768.169,633.289,801.221,632.518z"/>
								<g>
									<path style="fill:#081727;" d="M726.593,607.08c0.41,0.328,0.828,0.666,1.26,1.014
										c14.378,11.62,41.357,34.016,43.797,35.32c1.469,0.792,4.989,1.587,9.384,2.32c10.659,1.774,26.493,3.135,30.929,2.848
										c11.446-0.748,21.639-4.485,37.847-10.73c4.876-1.873,14.023-17.465,22.779-30.771H726.593z"/>
									<path style="fill:#152A43;" d="M836.008,607.08c6.647,13.403-20.103,32.55-40.435,36.896
										c-4.743,1.007-9.616,1.541-14.54,1.758c10.659,1.774,26.493,3.135,30.929,2.848c11.446-0.748,21.639-4.485,37.847-10.73
										c4.876-1.873,14.023-17.465,22.779-30.771H836.008z"/>
								</g>
							</g>
							<g>
								<g>
									<g>
										<rect x="893.442" y="505.034" style="fill:#081727;" width="18.013" height="83.351"/>
										<rect x="898.707" y="505.034" style="fill:#152A43;" width="18.014" height="83.351"/>
									</g>
									<g>
										<path style="fill:#CF1A42;" d="M956.431,506.781c0,6.543-2.932,11.85-6.551,11.85h-67.498
											c-3.62,0-6.554-5.307-6.554-11.85v-1.184c0-6.547,2.934-11.854,6.554-11.854h67.498c3.619,0,6.551,5.307,6.551,11.854
											V506.781z"/>
										<path style="fill:#45200D;" d="M908.212,506.781c0,6.543-2.027,11.85-4.526,11.85h-46.627
											c-2.503,0-4.528-5.307-4.528-11.85v-1.184c0-6.547,2.025-11.854,4.528-11.854h46.627c2.499,0,4.526,5.307,4.526,11.854
											V506.781z"/>
									</g>
								</g>
								<g>
									<path style="fill:#CF1A42;" d="M760.985,593.533c0,9.181-3.346,16.627-7.47,16.627h-76.926
										c-4.127,0-7.469-7.446-7.469-16.627v-1.661c0-9.185,3.343-16.628,7.469-16.628h76.926c4.124,0,7.47,7.443,7.47,16.628
										V593.533z"/>
									<path style="fill:#8A0D2E;" d="M947.199,593.533c0,9.181-8.177,16.627-18.267,16.627H740.769
										c-10.091,0-18.269-7.446-18.269-16.627v-1.661c0-9.185,8.178-16.628,18.269-16.628h188.163
										c10.09,0,18.267,7.443,18.267,16.628V593.533z"/>
								</g>
								<g>
									<g>
										<path style="fill:#8A0D2E;" d="M932.057,610.16c-7.6-36.739,34.376-275.406,23.28-292.257
											c-4.333-6.576-37.835-19.562-60.173-20.711c-15.353-0.784-21.213-0.809-29.981-1.042
											c-1.144-0.027-2.339-0.061-3.618-0.106c-17.555-0.542-30.086,1.546-39.563,4.816c-14.11,4.849-21.466,12.33-28.568,17.654
											c-0.195,0.147-0.39,0.285-0.571,0.423c-12.734,9.362-18.683,120.985-21.234,195.7
											c-0.804,23.836-9.945,94.688-18.114,95.523H932.057z"/>
									</g>
									<g>
										<path style="fill:#CF1A42;" d="M932.057,610.16c0.702-76.521,35.366-275.152,22.858-291.976
											c-4.159-5.601-32.127-15.826-55.901-19.459c-1.291-0.026-2.64-0.06-4.083-0.105c-19.81-0.542-33.951,1.546-44.646,4.815
											c-15.922,4.849-24.224,12.331-32.237,17.655c-0.22,0.147-0.441,0.285-0.645,0.423
											c-14.371,9.362-21.084,120.983-23.962,195.7c-0.88,23.121-1.915,64.691-2.562,92.947H932.057z"/>
									</g>
								</g>
								<g>
									<g>
										<rect x="699.721" y="512.806" style="fill:#081727;" width="18.016" height="63.25"/>
										<rect x="704.989" y="512.806" style="fill:#152A43;" width="18.014" height="63.25"/>
									</g>
									<g>
										<path style="fill:#8A0D2E;" d="M780.172,514.554c0,6.543-3.568,11.85-7.971,11.85h-82.119
											c-4.402,0-7.973-5.307-7.973-11.85v-1.185c0-6.548,3.57-11.853,7.973-11.853h82.119c4.403,0,7.971,5.306,7.971,11.853
											V514.554z"/>
										<path style="fill:#CF1A42;" d="M726.941,514.554c0,6.543-2.479,11.85-5.539,11.85h-57.047
											c-3.065,0-5.541-5.307-5.541-11.85v-1.185c0-6.548,2.476-11.853,5.541-11.853h57.047c3.061,0,5.539,5.306,5.539,11.853
											V514.554z"/>
									</g>
								</g>
							</g>
						</g>
					</g>
					<g>
						<g>
							<g>
								<path style="fill:#FFFDE8;" d="M370.429,436.488c0.071,0.007,0.143,0.007,0.216,0.007h75.173c3.339,0,6.047-3.762,6.047-8.4
									c0-2.323-0.679-4.419-1.772-5.938c-1.095-1.52-2.603-2.462-4.275-2.462h-75.173c-0.073,0-0.146,0-0.216,0.006
									c1.552,0.111,2.939,1.031,3.964,2.456c1.095,1.519,1.772,3.615,1.772,5.938
									C376.164,432.587,373.626,436.261,370.429,436.488z"/>
								<path style="fill:#B8B59D;" d="M373.683,422.334c0.103,0.112,0.206,0.247,0.304,0.381c0.096,0.136,0.189,0.27,0.274,0.414
									h58.731v-0.795H373.683z"/>
								<path style="fill:#B8B59D;" d="M375.364,425.909c0.052,0.262,0.104,0.525,0.138,0.795h57.207v-0.795H375.364z"/>
								<path style="fill:#B8B59D;" d="M375.364,430.279h57.057v-0.794h-56.919C375.468,429.756,375.421,430.025,375.364,430.279z"
									/>
								<path style="fill:#B8B59D;" d="M373.695,433.855h58.44v-0.795h-57.869C374.088,433.346,373.895,433.617,373.695,433.855z"/>
								<path style="fill:#00A99F;" d="M370.4,435.69l-0.017,1.589c0.087,0.008,0.173,0.008,0.264,0.008h75.173
									c3.648,0,6.615-4.123,6.615-9.193c0-2.456-0.686-4.76-1.938-6.5c-1.254-1.739-2.91-2.693-4.677-2.693h-75.173
									c-0.091,0-0.177,0-0.264,0.009l0.017,1.589c1.213,0.087,2.362,0.73,3.283,1.835c0.103,0.112,0.206,0.247,0.304,0.381
									c0.096,0.136,0.189,0.27,0.274,0.414c0.509,0.819,0.879,1.764,1.103,2.78c0.052,0.262,0.104,0.525,0.138,0.795
									c0.062,0.452,0.091,0.922,0.091,1.391c0,0.476-0.034,0.937-0.091,1.391c-0.034,0.27-0.08,0.539-0.138,0.794
									c-0.224,1.041-0.607,1.978-1.098,2.781c-0.178,0.286-0.372,0.557-0.572,0.795C372.803,434.919,371.659,435.603,370.4,435.69
									z M373.843,435.699c0.544-0.509,1.03-1.137,1.435-1.843c0.15-0.254,0.286-0.517,0.413-0.795
									c0.389-0.842,0.686-1.78,0.857-2.781c0.046-0.262,0.086-0.523,0.113-0.794c0.052-0.453,0.075-0.915,0.075-1.391
									c0-0.469-0.023-0.93-0.075-1.391c-0.027-0.262-0.067-0.533-0.108-0.795c-0.177-0.985-0.463-1.923-0.862-2.78
									c-0.127-0.279-0.27-0.54-0.418-0.795c-0.145-0.255-0.304-0.5-0.475-0.739c-0.297-0.413-0.618-0.786-0.961-1.104h71.983
									c1.456,0,2.836,0.786,3.865,2.224c1.034,1.438,1.607,3.354,1.607,5.38c0,4.195-2.455,7.604-5.472,7.604H373.843z"/>
								<path style="fill:#00998F;" d="M428.033,437.224c0.062,0.008,0.13,0.008,0.195,0.008h68.452
									c3.041,0,5.504-4.091,5.504-9.137c0-2.527-0.616-4.807-1.612-6.461c-0.996-1.652-2.37-2.677-3.892-2.677h-68.452
									c-0.065,0-0.133,0-0.195,0.007c1.414,0.12,2.676,1.122,3.61,2.67c0.995,1.654,1.613,3.933,1.613,6.461
									C433.257,432.981,430.942,436.978,428.033,437.224z"/>
							</g>
							<g>
								<path style="fill:#FFFDE8;" d="M349.146,463.685c0.069,0.012,0.143,0.012,0.216,0.012h75.172
									c3.34,0,6.048-5.645,6.048-12.608c0-3.486-0.68-6.633-1.772-8.913c-1.095-2.282-2.603-3.696-4.277-3.696h-75.172
									c-0.073,0-0.147,0-0.216,0.011c1.552,0.165,2.939,1.546,3.964,3.685c1.095,2.28,1.772,5.427,1.772,8.913
									C354.881,457.831,352.343,463.346,349.146,463.685z"/>
								<path style="fill:#B8B59D;" d="M352.4,442.442c0.103,0.168,0.205,0.37,0.304,0.571c0.097,0.204,0.189,0.405,0.275,0.621
									h58.731v-1.192H352.4z"/>
								<path style="fill:#B8B59D;" d="M354.081,447.808c0.052,0.393,0.104,0.787,0.138,1.193h57.206v-1.193H354.081z"/>
								<path style="fill:#B8B59D;" d="M354.081,454.368h57.057v-1.193h-56.919C354.185,453.58,354.138,453.986,354.081,454.368z"/>
								<path style="fill:#B8B59D;" d="M352.412,459.735h58.44v-1.193h-57.869C352.805,458.971,352.612,459.377,352.412,459.735z"/>
								<path style="fill:#D74E42;" d="M349.117,462.489l-0.017,2.385c0.087,0.012,0.173,0.012,0.263,0.012h75.175
									c3.648,0,6.615-6.189,6.615-13.798c0-3.685-0.686-7.143-1.938-9.756c-1.254-2.611-2.91-4.043-4.677-4.043h-75.175
									c-0.09,0-0.175,0-0.263,0.012l0.017,2.385c1.213,0.131,2.361,1.096,3.282,2.755c0.103,0.168,0.205,0.37,0.304,0.571
									c0.097,0.204,0.189,0.405,0.275,0.621c0.508,1.229,0.879,2.648,1.103,4.174c0.052,0.393,0.104,0.787,0.138,1.193
									c0.062,0.68,0.091,1.383,0.091,2.087c0,0.716-0.034,1.408-0.091,2.087c-0.034,0.405-0.08,0.811-0.138,1.193
									c-0.224,1.562-0.606,2.97-1.098,4.174c-0.178,0.429-0.371,0.836-0.571,1.193
									C351.519,461.332,350.376,462.359,349.117,462.489z M352.56,462.502c0.544-0.764,1.03-1.706,1.435-2.767
									c0.149-0.382,0.286-0.776,0.413-1.193c0.389-1.263,0.686-2.671,0.857-4.174c0.046-0.393,0.086-0.787,0.113-1.193
									c0.052-0.679,0.075-1.371,0.075-2.087c0-0.704-0.023-1.395-0.075-2.087c-0.027-0.394-0.067-0.799-0.108-1.193
									c-0.177-1.48-0.463-2.886-0.862-4.174c-0.128-0.417-0.27-0.81-0.418-1.192c-0.144-0.38-0.304-0.752-0.474-1.109
									c-0.297-0.62-0.618-1.18-0.962-1.657h71.983c1.456,0,2.836,1.18,3.865,3.338c1.034,2.159,1.607,5.034,1.607,8.075
									c0,6.296-2.454,11.413-5.472,11.413H352.56z"/>
								<path style="fill:#FF6C58;" d="M406.749,464.792c0.063,0.012,0.13,0.012,0.195,0.012h68.452
									c3.041,0,5.504-6.142,5.504-13.715c0-3.793-0.617-7.216-1.612-9.696c-0.997-2.481-2.37-4.02-3.893-4.02h-68.452
									c-0.065,0-0.132,0-0.195,0.012c1.414,0.18,2.677,1.682,3.611,4.007c0.995,2.48,1.613,5.903,1.613,9.696
									C411.973,458.422,409.658,464.421,406.749,464.792z"/>
							</g>
						</g>
						<g>
							<g>
								<path style="fill:#14351B;" d="M449.674,328.2c3.543-0.549,7.232,0.209,10.897-0.293c-2.979-0.814-6.314-2.024-9.123-2.293
									L449.674,328.2z"/>
								<path style="fill:#3FA653;" d="M453.691,318.349c0.127,15.703-8.812,29.47-13.993,43.844
									c-3.326,9.218-6.405,18.955-8.952,27.987l-6.984-0.998c0-8.134-1.203-16.461-3.073-24.948
									c-1.664-7.536-3.844-15.198-6.179-22.94c-4.702-15.61-6.485-35.723,9.032-46.158c4.629-3.113,9.006-3.917,12.917-3.113
									C446.595,294.092,453.598,306.956,453.691,318.349z"/>
								<path style="fill:#14351B;" d="M418.742,346.722c-2.236,2.802-5.466,4.742-7.824,7.591c2.743-1.417,6.016-2.783,8.267-4.487
									L418.742,346.722z"/>
								<path style="fill:#14351B;" d="M430.929,330.838c2.524-2.546,5.944-4.128,8.594-6.707c-2.88,1.114-6.281,2.121-8.702,3.574
									L430.929,330.838z"/>
								<path style="fill:#14351B;" d="M440.241,360.989c2.525-2.546,5.944-4.128,8.594-6.707c-2.881,1.114-6.281,2.121-8.701,3.574
									L440.241,360.989z"/>
								<path style="fill:#14351B;" d="M430.421,356.222c0.053-3.584,1.418-7.096,1.538-10.792c-1.301,2.8-3.053,5.884-3.79,8.609
									L430.421,356.222z"/>
								<path style="fill:#14351B;" d="M427.464,314.056c0.255-3.576,1.818-7.004,2.147-10.688
									c-1.459,2.722-3.382,5.702-4.271,8.381L427.464,314.056z"/>
								<path style="fill:#14351B;" d="M443.869,301.64c0.255-3.576,1.818-7.004,2.147-10.688c-1.458,2.722-3.382,5.702-4.271,8.381
									L443.869,301.64z"/>
								<path style="fill:#14351B;" d="M415.907,331.219c-3.549,0.506-7.23-0.297-10.9,0.16c2.969,0.85,6.288,2.1,9.095,2.404
									L415.907,331.219z"/>
								<path style="fill:#14351B;" d="M421.506,301.552c-3.202-1.613-5.765-4.375-9.037-6.097c1.95,2.394,3.96,5.316,6.089,7.169
									L421.506,301.552z"/>
								<path style="opacity:0.5;fill:#25843E;" d="M453.691,318.349c0.127,15.703-8.812,29.47-13.993,43.844
									c-3.326,9.218-6.405,18.955-8.952,27.987l-6.984-0.998c0-8.134-1.203-16.461-3.073-24.948
									c3.664-0.871,7.23-2.641,9.239-4.21c7.329-5.72,11.426-16.9,13.315-25.839c2.176-10.336,1.57-21.17-1.33-31.373
									c-1.03-3.618-3.199-7.203-5.454-10.788C446.595,294.092,453.598,306.956,453.691,318.349z"/>
							</g>
							<g>
								<g>
									<polygon style="fill:#8A1701;" points="412.916,377.76 416.952,418.997 443.113,418.997 446.774,377.76 									"/>
									<rect x="410.334" y="377.76" style="fill:#A22000;" width="39.02" height="7.538"/>
								</g>
								<path style="fill:#D64324;" d="M423.762,414.168c0.072,0.854-0.564,1.604-1.418,1.676l0,0
									c-0.853,0.071-1.604-0.563-1.676-1.418l-2.068-24.744c-0.07-0.854,0.564-1.604,1.418-1.676l0,0
									c0.853-0.071,1.604,0.564,1.676,1.418L423.762,414.168z"/>
								<path style="fill:#D64324;" d="M433.375,381.307c0,0.735-0.596,1.33-1.33,1.33h-18.623c-0.734,0-1.33-0.596-1.33-1.33l0,0
									c0-0.734,0.596-1.33,1.33-1.33h18.623C432.779,379.977,433.375,380.573,433.375,381.307L433.375,381.307z"/>
							</g>
						</g>
					</g>
				</g>
			</g>
		</g>
		<g>
			<g>
				<path style="fill:#FFFFFF;" d="M448.155,771.579c-4.281,3.776-10.455,2.916-14.136,6.499c-0.863-1.369-2.176-2.924-3.158-3.738
					h-1.054c-2.312-0.176-6.482-1.035-8.486-2.618c2.731-4.528,1.109-7.725,4.271-10.711c0.161-0.155,0.334-0.306,0.519-0.456
					c3.179-2.576,8.984-2.025,10.104-6.665c1.653,0.358,4.398,2.183,6.595,3.959c1.241,1.004,2.309,1.99,2.905,2.688
					C449.23,764.64,445.723,767.24,448.155,771.579z"/>
				<path style="fill:#D9CECC;" d="M448.155,771.579c-4.281,3.776-10.455,2.916-14.136,6.499c-0.863-1.369-2.176-2.924-3.158-3.738
					h-1.054c-2.312-0.176-6.482-1.035-8.486-2.618c2.731-4.528,1.109-7.725,4.271-10.711c-0.014,0.245-0.021,0.48-0.021,0.702
					c0,2.597,0.046,5.205-0.014,7.802c0.762-0.695,2.26,0.028,3.215,0.236c1.326,0.288,1.407,0.365,2.185-0.391
					c1.45-1.406,2.394-4.214,3.703-5.896c0.706-0.905,1.415-1.945,2.282-2.649c0.048,1.46,0.4,2.843,0.523,4.18
					c-0.14-0.46-0.519-1.117-1.015-1.495c-1.351,1.898-2.807,3.839-4.232,5.721c1.709,1.295,4.005,2.028,5.816,3.179
					c0.674-0.968,1.232-3.186,2.319-3.878c1.029-0.65,2.479,0.288,3.79,0.674c-1.323-1.379-3.285-1.653-4.99-2.081
					c1.685-1.067,4.422-2.246,4.833-3.85c0.73-2.85-2.421-2.411-4.363-2.678c1.085-0.853,2.149-1.769,3.188-2.737
					c1.241,1.004,2.309,1.99,2.905,2.688C449.23,764.64,445.723,767.24,448.155,771.579z"/>
			</g>
			<g>
				<path style="fill:#FFFFFF;" d="M467.781,779.114c-4.048,5.652-11.609,6.32-14.998,11.58c-1.398-1.389-3.382-2.874-4.77-3.571
					l-1.25,0.288c-2.792,0.425-7.976,0.544-10.786-0.786c2.001-6.119-0.797-9.47,2.139-13.878c0.149-0.228,0.311-0.454,0.491-0.683
					c3.069-3.928,10.108-4.862,10.168-10.673c2.059-0.027,5.815,1.388,8.907,2.894c1.75,0.851,3.285,1.729,4.184,2.395
					C467.158,770.586,463.708,774.631,467.781,779.114z"/>
				<path style="fill:#D9CECC;" d="M467.781,779.114c-4.048,5.652-11.609,6.32-14.998,11.58c-1.398-1.389-3.382-2.874-4.77-3.571
					l-1.25,0.288c-2.792,0.425-7.976,0.544-10.786-0.786c2.001-6.119-0.797-9.47,2.139-13.878c0.05,0.295,0.106,0.576,0.167,0.838
					c0.71,3.082,1.478,6.164,2.117,9.262c0.713-1.033,2.691-0.585,3.879-0.601c1.653-0.021,1.771,0.049,2.489-1.059
					c1.335-2.067,1.687-5.658,2.78-8.01c0.59-1.267,1.147-2.694,1.982-3.768c0.458,1.719,1.253,3.264,1.763,4.817
					c-0.292-0.507-0.922-1.181-1.613-1.497c-1.083,2.623-2.281,5.324-3.457,7.946c2.382,1.07,5.307,1.312,7.77,2.184
					c0.534-1.334,0.59-4.119,1.692-5.237c1.043-1.052,3.019-0.336,4.683-0.237c-1.947-1.275-4.35-1.063-6.491-1.104
					c1.707-1.727,4.633-3.875,4.682-5.891c0.086-3.581-3.533-2.199-5.909-1.984c1.053-1.308,2.065-2.687,3.032-4.12
					c1.75,0.851,3.285,1.729,4.184,2.395C467.158,770.586,463.708,774.631,467.781,779.114z"/>
			</g>
			<g>
				<path style="fill:#FFFFFF;" d="M430.576,788.489c-4.116,0.666-7.597-2.27-11.268-1.49c-0.001-1.183-0.205-2.655-0.496-3.541
					l-0.651-0.41c-1.361-1.009-3.602-3.166-4.225-4.924c3.452-1.735,3.696-4.342,6.813-4.956c0.16-0.032,0.325-0.059,0.498-0.079
					c2.97-0.354,6.342,2.249,8.841-0.182c0.883,0.865,1.868,3.062,2.534,5.015c0.377,1.104,0.652,2.13,0.748,2.793
					C433.943,784.62,430.763,784.861,430.576,788.489z"/>
				<path style="fill:#D9CECC;" d="M430.576,788.489c-4.116,0.666-7.597-2.27-11.268-1.49c-0.001-1.183-0.205-2.655-0.496-3.541
					l-0.651-0.41c-1.361-1.009-3.602-3.166-4.225-4.924c3.452-1.735,3.696-4.342,6.813-4.956c-0.104,0.147-0.2,0.29-0.286,0.426
					c-1.012,1.605-2,3.234-3.049,4.816c0.742-0.133,1.386,0.897,1.896,1.397c0.707,0.695,0.727,0.774,1.502,0.612
					c1.444-0.306,3.121-1.673,4.586-2.202c0.789-0.285,1.631-0.651,2.442-0.749c-0.538,0.922-0.859,1.913-1.305,2.787
					c0.092-0.339,0.114-0.892-0.045-1.319c-1.574,0.647-3.232,1.279-4.844,1.886c0.551,1.466,1.684,2.814,2.355,4.231
					c0.794-0.336,2.003-1.489,2.945-1.493c0.887-0.001,1.419,1.143,2.079,1.893c-0.28-1.368-1.386-2.301-2.273-3.231
					c1.458-0.002,3.608,0.336,4.486-0.496c1.562-1.477-0.557-2.434-1.652-3.354c1.002-0.105,2.016-0.257,3.036-0.45
					c0.377,1.104,0.652,2.13,0.748,2.793C433.943,784.62,430.763,784.861,430.576,788.489z"/>
			</g>
			<g>
				<g>
					<path style="fill:#526C73;" d="M401.14,703.065l5.837,70.65l3.525,42.668h58.665l9.028-113.318H401.14z M412.121,783.311
						l-0.716-8.65l-4.595-55.645h5.023l5.371,56.33l0.758,7.966H412.121z M420.892,783.311l-0.751-7.861l-5.378-56.434h6.724
						l2.608,56.319l0.369,7.977H420.892z M430.368,783.311h-2.981l-0.385-8.273l-2.595-56.022h6.024l-0.054,55.451L430.368,783.311z
						 M437.773,783.311h-4.492l0.008-9.568l0.055-54.727h4.989l-0.463,53.112L437.773,783.311z M440.691,783.311l0.109-12.592
						l0.452-51.703h4.743l0.047,48.294l0.015,16.001H440.691z M451.956,783.311h-2.981l-0.02-18.499l-0.042-45.796h6.02
						l-1.912,41.251L451.956,783.311z M454.879,783.311l1.283-27.791l1.69-36.504h6.724l-1.84,19.308l-4.285,44.987H454.879z
						 M467.408,783.311h-6.028l6.13-64.295h5.018L467.408,783.311z"/>
				</g>
				<g>
					<path style="fill:#2D3335;" d="M468.066,703.065c-0.366,8.281-1.428,16.561-2.985,24.562
						c-0.696,3.588-1.443,7.179-2.345,10.697l-4.285,44.987h-3.571l1.283-27.791c-0.941,1.646-1.983,3.234-3.14,4.747l-1.066,23.045
						h-2.981l-0.02-18.499c-0.915,0.872-1.883,1.708-2.914,2.498l0.015,16.001h-5.366l0.109-12.592
						c-0.954,0.515-1.93,0.981-2.93,1.409l-0.097,11.183h-4.492l0.008-9.568c-0.961,0.276-1.933,0.517-2.914,0.724l-0.008,8.845
						h-2.981l-0.385-8.273c-0.961,0.128-1.93,0.226-2.906,0.296l0.369,7.977h-3.573l-0.751-7.861
						c-0.976-0.007-1.957-0.042-2.937-0.105l0.758,7.966h-5.841l-0.716-8.65c-1.49-0.257-2.968-0.572-4.428-0.946l3.525,42.668
						h58.665l9.028-113.318H468.066z M467.408,783.311h-6.028l6.13-64.295h5.018L467.408,783.311z"/>
				</g>
				<path style="fill:#526C73;" d="M484.988,705.196c0,2.095-1.698,3.793-3.794,3.793h-83.463c-2.095,0-3.794-1.698-3.794-3.793l0,0
					c0-2.096,1.699-3.794,3.794-3.794h83.463C483.289,701.402,484.988,703.1,484.988,705.196L484.988,705.196z"/>
				<path style="fill:#526063;" d="M461.642,704.612c0,1.128-1.183,2.043-2.639,2.043h-59.215c-1.458,0-2.639-0.915-2.639-2.043l0,0
					c0-1.128,1.181-2.042,2.639-2.042h59.215C460.459,702.569,461.642,703.484,461.642,704.612L461.642,704.612z"/>
			</g>
		</g>
	</g>
</g>
</svg>
